<svg width="100" height="100" viewBox="0 0 100 100" xmlns="http://www.w3.org/2000/svg">
  <g fill="#1e723a" opacity="0.15">
    <!-- نمط إسلامي هندسي متكرر -->
    <path d="M0,0 L50,0 L50,50 L0,50 z M25,0 L25,50 M0,25 L50,25" stroke="#1e723a" stroke-width="1" fill="none" />
    <path d="M50,0 L100,0 L100,50 L50,50 z M75,0 L75,50 M50,25 L100,25" stroke="#1e723a" stroke-width="1" fill="none" />
    <path d="M0,50 L50,50 L50,100 L0,100 z M25,50 L25,100 M0,75 L50,75" stroke="#1e723a" stroke-width="1" fill="none" />
    <path d="M50,50 L100,50 L100,100 L50,100 z M75,50 L75,100 M50,75 L100,75" stroke="#1e723a" stroke-width="1" fill="none" />
    
    <!-- دوائر في نقاط التقاطع -->
    <circle cx="25" cy="25" r="4" />
    <circle cx="75" cy="25" r="4" />
    <circle cx="25" cy="75" r="4" />
    <circle cx="75" cy="75" r="4" />
    
    <!-- نجوم إسلامية -->
    <path d="M50,15 L52,22 L59,22 L53,27 L55,34 L50,30 L45,34 L47,27 L41,22 L48,22 z" />
    <path d="M50,65 L52,72 L59,72 L53,77 L55,84 L50,80 L45,84 L47,77 L41,72 L48,72 z" />
    <path d="M15,50 L17,57 L24,57 L18,62 L20,69 L15,65 L10,69 L12,62 L6,57 L13,57 z" />
    <path d="M85,50 L87,57 L94,57 L88,62 L90,69 L85,65 L80,69 L82,62 L76,57 L83,57 z" />
  </g>
</svg>
